# xmcd CD database file
#
# Track frame offsets:
#	150
#	11205
#	20972
#	35465
#	48129
#	59675
#	70817
#	81170
#	93805
#	105643
#	116097
#	128308
#	140280
#	153730
#
# Disc length: 2208 seconds
#
# Revision: 2
# Processed by: cddbd v1.5.2PL0 Copyright (c) Steve Scherf et al.
# Submitted via: CDex 1.70beta2
#
DISCID=b9089e0e
DTITLE=Amber Digby and Justin Trevino - Keeping Up Appearances
DYEAR=2010
DGENRE=Country
TTITLE0=Keeping Up Appearances
TTITLE1=Wish I Didn't Have To Miss You
TTITLE2=Right Combination
TTITLE3=That Makes Two Of Us
TTITLE4=High As The Mountains
TTITLE5=Lead Me On
TTITLE6=Wrong Company
TTITLE7=Just Between The Two Of Us
TTITLE8=Which One Is To Blame
TTITLE9=Slowly, But Surely
TTITLE10=After The Fire Is Gone
TTITLE11=Kicking Our Hearts Around
TTITLE12=How's The World Treating You
TTITLE13=Flame In My Heart
EXTD=YEAR: 2010
EXTT0=
EXTT1=
EXTT2=
EXTT3=
EXTT4=
EXTT5=
EXTT6=
EXTT7=
EXTT8=
EXTT9=
EXTT10=
EXTT11=
EXTT12=
EXTT13=
PLAYORDER=
